<svg id="Layer_1" data-name="Layer 1" xmlns="http://www.w3.org/2000/svg" viewBox="0 0 623.62 226.77"><defs><style>.cls-1{fill:#582b0d;}.cls-2{fill:#009345;}</style></defs><rect class="cls-1" x="174.66" y="49.65" width="9.66" height="127.47"/><path class="cls-1" d="M159.44,64l-24.18,55.49a37.9,37.9,0,0,0-11.6-19.29l-.06-.06-.07-.05a4.47,4.47,0,0,0-1.29-.73l15.2-35.88a1.58,1.58,0,0,1,1.53-.89h19.32a1.27,1.27,0,0,1,1.06.45.84.84,0,0,1,.09,1"/><path class="cls-1" d="M70.4,99.24l-.07,0-.07.06-.06.06a46,46,0,0,0-8.7,10.34l0,0a37.82,37.82,0,0,0-3.94,10L33.43,64a.83.83,0,0,1,.1-1,1.24,1.24,0,0,1,1-.45H53.84a1.65,1.65,0,0,1,1.6.89Z"/><path class="cls-1" d="M104.68,70.77,96.35,92.85l-8.18-22,4.3-7.07a4.47,4.47,0,0,1,4.1-2,4.28,4.28,0,0,1,3.89,2Z"/><path class="cls-2" d="M129.18,63.25l-12,28.36-8,18.92-1.13,2.68-.73,1.74-7.48,17.71A3.61,3.61,0,0,1,96.33,135a4.2,4.2,0,0,1-2.17-.6,3,3,0,0,1-1.39-1.76l-7.09-16.91-1.05-2.51-2.55-6.09L75.55,91.56,63.69,63.25a1,1,0,0,1,.16-1,1.14,1.14,0,0,1,.94-.5H80.25a1.94,1.94,0,0,1,2,1.42l4,10.77,8.47,22.79,1.56,4.21L98,96.54l8.56-22.68,4-10.71a2,2,0,0,1,2-1.42h15.46a1.12,1.12,0,0,1,.94.5,1,1,0,0,1,.16,1"/><path class="cls-2" d="M133.55,128.89a35.07,35.07,0,0,1-10.94,25.73,37,37,0,0,1-11.87,7.7A37.83,37.83,0,0,1,96.46,165a38.23,38.23,0,0,1-14.4-2.72,36.78,36.78,0,0,1-11.9-7.7,34.68,34.68,0,0,1-8-11.53,35.58,35.58,0,0,1-2.83-14.2,37.55,37.55,0,0,1,.25-4.4,34.59,34.59,0,0,1,4.36-13.31A42.42,42.42,0,0,1,71.57,102l7.77,17a17.89,17.89,0,0,0-2.65,7.2h0a19.84,19.84,0,0,0-.19,2.7,17.73,17.73,0,0,0,5.76,13.41,20,20,0,0,0,14.2,5.56,19.72,19.72,0,0,0,14-5.56,17.8,17.8,0,0,0,5.92-13.41c0-.74,0-1.46-.11-2.17a17.37,17.37,0,0,0-2.24-6.91L121.19,102a1.69,1.69,0,0,1,.58.3,35.25,35.25,0,0,1,11.48,21.81,38.07,38.07,0,0,1,.3,4.8"/><path class="cls-2" d="M216.2,62.21H223l-8.45,42.25h-6.64l-8.45-42.25h6.76l5,28.55Z"/><path class="cls-2" d="M232.67,68.85V79.47h7.49v6.64h-7.49V97.82h10.87v6.64H226V62.21h17.5v6.64Z"/><path class="cls-2" d="M256.51,104.94a10.12,10.12,0,0,1-7-2.48,10.68,10.68,0,0,1-3-7.9V72.11a10.68,10.68,0,0,1,3-7.9,10.12,10.12,0,0,1,7-2.48,9.85,9.85,0,0,1,7,2.48,10.43,10.43,0,0,1,3,7.9v3.74h-6.64V72.11a4.08,4.08,0,0,0-.85-3,3.66,3.66,0,0,0-2.53-.72,3.56,3.56,0,0,0-2.47.72,4,4,0,0,0-.91,3V94.56a4,4,0,0,0,.91,3,3.56,3.56,0,0,0,2.47.72,3.66,3.66,0,0,0,2.53-.72,4.08,4.08,0,0,0,.85-3V89.13h6.64v5.43a10.43,10.43,0,0,1-3,7.9A9.85,9.85,0,0,1,256.51,104.94Z"/><path class="cls-2" d="M288.92,68.85h-6.76v35.61h-6.64V68.85h-6.76V62.21h20.16Z"/><path class="cls-2" d="M301.35,104.94a9.85,9.85,0,0,1-7-2.48,10.4,10.4,0,0,1-3-7.9V72.11a10.4,10.4,0,0,1,3-7.9,11.12,11.12,0,0,1,14,0,10.43,10.43,0,0,1,3,7.9V94.56a10.43,10.43,0,0,1-3,7.9A9.87,9.87,0,0,1,301.35,104.94Zm0-36.57a3.58,3.58,0,0,0-2.48.72,4.07,4.07,0,0,0-.9,3V94.56a4.07,4.07,0,0,0,.9,3,3.58,3.58,0,0,0,2.48.72,3.44,3.44,0,0,0,2.47-.72,3.94,3.94,0,0,0,.91-3V72.11a3.94,3.94,0,0,0-.91-3A3.44,3.44,0,0,0,301.35,68.37Z"/><path class="cls-2" d="M335.5,104.46h-6.76l-3.44-17h-3v17h-6.64V62.21h10a9.88,9.88,0,0,1,7,2.54q3,2.77,3,7.84v4.53q0,5.13-3,7.9a6.3,6.3,0,0,1-1,.79ZM329,72.59a4.17,4.17,0,0,0-.9-3,3.52,3.52,0,0,0-2.47-.73h-3.38v12h3.38a3.57,3.57,0,0,0,2.47-.72,4.07,4.07,0,0,0,.9-3Z"/><path class="cls-2" d="M377,62.21l-5.19,42.25h-3.68l-5.92-21-5.85,21h-3.68l-5.19-42.25h6.7l2.29,21.06,3.86-14.36h3.8L368,83.27l2.29-21.06Z"/><path class="cls-2" d="M389.63,104.94a9.85,9.85,0,0,1-7-2.48,10.43,10.43,0,0,1-3-7.9V72.11a10.43,10.43,0,0,1,3-7.9,11.12,11.12,0,0,1,14,0,10.43,10.43,0,0,1,3,7.9V94.56a10.43,10.43,0,0,1-3,7.9A9.85,9.85,0,0,1,389.63,104.94Zm0-36.57a3.56,3.56,0,0,0-2.47.72,4,4,0,0,0-.91,3V94.56a4,4,0,0,0,.91,3,3.56,3.56,0,0,0,2.47.72,3.42,3.42,0,0,0,2.47-.72,3.9,3.9,0,0,0,.91-3V72.11a3.9,3.9,0,0,0-.91-3A3.42,3.42,0,0,0,389.63,68.37Z"/><path class="cls-2" d="M413.53,104.94a9.85,9.85,0,0,1-7-2.48,10.4,10.4,0,0,1-3-7.9V72.11a10.4,10.4,0,0,1,3-7.9,11.12,11.12,0,0,1,14,0,10.43,10.43,0,0,1,3,7.9V94.56a10.43,10.43,0,0,1-3,7.9A9.87,9.87,0,0,1,413.53,104.94Zm0-36.57a3.58,3.58,0,0,0-2.48.72,4.07,4.07,0,0,0-.9,3V94.56a4.07,4.07,0,0,0,.9,3,3.58,3.58,0,0,0,2.48.72,3.44,3.44,0,0,0,2.47-.72,3.94,3.94,0,0,0,.91-3V72.11a3.94,3.94,0,0,0-.91-3A3.44,3.44,0,0,0,413.53,68.37Z"/><path class="cls-2" d="M437.85,104.46h-10V62.21h10a9.84,9.84,0,0,1,7,2.54c2,1.85,3,4.46,3,7.84V94.32a12.49,12.49,0,0,1-.72,4.4,9,9,0,0,1-2.36,3.38A9.92,9.92,0,0,1,437.85,104.46Zm-3.38-6.64h3.38a3.71,3.71,0,0,0,2.53-.67,3.66,3.66,0,0,0,.84-2.83V72.59a4.17,4.17,0,0,0-.9-3,3.52,3.52,0,0,0-2.47-.73h-3.38Z"/><path class="cls-2" d="M461.74,104.94a10.14,10.14,0,0,1-7-2.48,10.68,10.68,0,0,1-3-7.9V72.11a10.68,10.68,0,0,1,3-7.9,10.14,10.14,0,0,1,7-2.48,9.85,9.85,0,0,1,7,2.48,10.43,10.43,0,0,1,3,7.9v3.74h-6.64V72.11a4.13,4.13,0,0,0-.84-3,3.71,3.71,0,0,0-2.54-.72,3.56,3.56,0,0,0-2.47.72,4,4,0,0,0-.91,3V94.56a4,4,0,0,0,.91,3,3.56,3.56,0,0,0,2.47.72,3.71,3.71,0,0,0,2.54-.72,4.13,4.13,0,0,0,.84-3V89.13h6.64v5.43a10.43,10.43,0,0,1-3,7.9A9.85,9.85,0,0,1,461.74,104.94Z"/><path class="cls-2" d="M495.66,104.46H488.9l-3.44-17h-3v17H475.8V62.21h10a9.84,9.84,0,0,1,7,2.54q3,2.77,3,7.84v4.53q0,5.13-3,7.9a5.47,5.47,0,0,1-1,.79ZM489.2,72.59a4.12,4.12,0,0,0-.91-3,3.51,3.51,0,0,0-2.47-.73h-3.38v12h3.38a3.56,3.56,0,0,0,2.47-.72,4,4,0,0,0,.91-3Z"/><path class="cls-2" d="M513.82,97.76h-7.61l-1.2,6.7h-6.76l8.45-42.25h6.64l8.44,42.25H515Zm-1.15-6.64L510,76l-2.66,15.15Z"/><path class="cls-2" d="M531.68,68.85V79.47h7.54v6.64h-7.54v18.35H525V62.21h17.5v6.64Z"/><path class="cls-2" d="M564.45,68.85h-6.76v35.61h-6.64V68.85h-6.76V62.21h20.16Z"/><path class="cls-2" d="M576.45,104.94a9.87,9.87,0,0,1-7-2.48,10.43,10.43,0,0,1-3-7.9V89.07h6.64v5.49a4.07,4.07,0,0,0,.9,3,3.57,3.57,0,0,0,2.47.72,3.45,3.45,0,0,0,2.48-.72,3.94,3.94,0,0,0,.9-3V91.9a6.32,6.32,0,0,0-2.23-4.82,18.25,18.25,0,0,0-2.53-1.57,23.85,23.85,0,0,1-4.17-2.66,13.47,13.47,0,0,1-3.32-4.4,12.54,12.54,0,0,1-1.14-5.31v-1a10.43,10.43,0,0,1,3-7.9,11.12,11.12,0,0,1,14,0,10.4,10.4,0,0,1,3,7.9v3.68h-6.64V72.11a3.94,3.94,0,0,0-.9-3,3.45,3.45,0,0,0-2.48-.72,3.57,3.57,0,0,0-2.47.72,4.07,4.07,0,0,0-.9,3v1a6.14,6.14,0,0,0,2.23,4.76,17.22,17.22,0,0,0,2.35,1.45A24.4,24.4,0,0,1,582,82.13a12.6,12.6,0,0,1,4.46,9.77v2.66a10.4,10.4,0,0,1-3,7.9A9.85,9.85,0,0,1,576.45,104.94Z"/><path class="cls-2" d="M224.62,165a14,14,0,0,1-9.48-3.26,12.12,12.12,0,0,1-2.95-4A13.8,13.8,0,0,1,211,151.7a10.85,10.85,0,0,1,1.45-5.16,15.82,15.82,0,0,1,5.13-5.22l.24-.12a14.79,14.79,0,0,1-3.26-9.11v-1a9.16,9.16,0,0,1,1.15-4.62,8.5,8.5,0,0,1,3.26-3.23,11.81,11.81,0,0,1,11.34,0,8.57,8.57,0,0,1,3.26,3.23,9.26,9.26,0,0,1,1.15,4.62v1a12.75,12.75,0,0,1-1.15,5.34,12.5,12.5,0,0,1-3.38,4.38,6.31,6.31,0,0,1-1,.84l1.21.91a29.4,29.4,0,0,1,4.41,4.34l1.32-2.23,5.8,3.38c-1,1.69-1.95,3.32-3,4.89a22.69,22.69,0,0,1,3,10.56h-6.76a13,13,0,0,0-.73-4.17l-.42.49a13.54,13.54,0,0,1-4.37,3.13A12.2,12.2,0,0,1,224.62,165Zm-2-18.95-1.33.85q-3.62,2.53-3.62,4.76a6.27,6.27,0,0,0,1.87,5,7.31,7.31,0,0,0,5.07,1.63,6.1,6.1,0,0,0,4.52-2.17,17.93,17.93,0,0,0,1.81-2.29,28.23,28.23,0,0,0-4.76-5l-1.21-1Zm2-17.62a4.14,4.14,0,0,0-2.29.61,2.18,2.18,0,0,0-.76.75,2.4,2.4,0,0,0-.27,1.24v1a9.19,9.19,0,0,0,2.53,6,9.16,9.16,0,0,0,2.06-1.39,6.18,6.18,0,0,0,2.11-4.59v-1a2.4,2.4,0,0,0-.27-1.24,2.14,2.14,0,0,0-.82-.75A4.17,4.17,0,0,0,224.62,128.47Z"/><path class="cls-2" d="M262.76,164.5h-6.64V122.26h6.64Z"/><path class="cls-2" d="M288,164.5h-3.86L274,143.07V164.5h-6.64V122.26h3.86l10.14,21.36V122.26H288Z"/><path class="cls-2" d="M310.91,128.89h-6.76V164.5h-6.64V128.89h-6.76v-6.63h20.16Z"/><path class="cls-2" d="M320.5,128.89v10.62H328v6.64H320.5v11.71h10.87v6.64h-17.5V122.26h17.5v6.63Z"/><path class="cls-2" d="M355.32,164.5h-6.76l-3.44-17h-3v17h-6.64V122.26h10a9.85,9.85,0,0,1,7,2.53q3,2.77,3,7.85v4.52q0,5.13-3,7.91a6.89,6.89,0,0,1-1,.78Zm-6.46-31.86a4.18,4.18,0,0,0-.9-3,3.57,3.57,0,0,0-2.47-.73h-3.38v12h3.38a3.57,3.57,0,0,0,2.47-.72,4.05,4.05,0,0,0,.9-3Z"/><path class="cls-2" d="M366.06,164.5h-6.63V122.26h6.63Z"/><path class="cls-2" d="M380.36,165a9.86,9.86,0,0,1-7-2.47,10.45,10.45,0,0,1-3-7.91V132.15a10.43,10.43,0,0,1,3-7.9,11.12,11.12,0,0,1,14,0,10.4,10.4,0,0,1,3,7.9V154.6a10.42,10.42,0,0,1-3,7.91A9.85,9.85,0,0,1,380.36,165Zm0-36.57a3.52,3.52,0,0,0-2.47.73,4,4,0,0,0-.91,3V154.6a4,4,0,0,0,.91,3,3.57,3.57,0,0,0,2.47.72,3.45,3.45,0,0,0,2.48-.72,3.93,3.93,0,0,0,.9-3V132.15a3.92,3.92,0,0,0-.9-3A3.4,3.4,0,0,0,380.36,128.41Z"/><path class="cls-2" d="M414.52,164.5h-6.76l-3.44-17h-3v17h-6.63V122.26h10a9.84,9.84,0,0,1,7,2.53q3,2.77,3,7.85v4.52q0,5.13-3,7.91a6.27,6.27,0,0,1-1,.78Zm-6.46-31.86a4.18,4.18,0,0,0-.9-3,3.6,3.6,0,0,0-2.48-.73H401.3v12h3.38a3.6,3.6,0,0,0,2.48-.72,4.05,4.05,0,0,0,.9-3Z"/><path class="cls-2" d="M427.79,165a9.86,9.86,0,0,1-7-2.47,10.45,10.45,0,0,1-3-7.91v-5.49h6.63v5.49a4,4,0,0,0,.91,3,3.57,3.57,0,0,0,2.47.72,3.45,3.45,0,0,0,2.48-.72,3.93,3.93,0,0,0,.9-3V152a6.36,6.36,0,0,0-2.23-4.83,19.34,19.34,0,0,0-2.53-1.57,23.46,23.46,0,0,1-4.17-2.66,13.37,13.37,0,0,1-3.32-4.4,12.54,12.54,0,0,1-1.14-5.31v-1a10.43,10.43,0,0,1,3-7.9,11.12,11.12,0,0,1,14,0,10.43,10.43,0,0,1,3,7.9v3.68h-6.64v-3.68a3.92,3.92,0,0,0-.9-3,3.4,3.4,0,0,0-2.48-.73,3.52,3.52,0,0,0-2.47.73,4,4,0,0,0-.91,3v1a6.19,6.19,0,0,0,2.24,4.77,18.6,18.6,0,0,0,2.35,1.44,25,25,0,0,1,4.35,2.78,12.62,12.62,0,0,1,4.46,9.78v2.65a10.46,10.46,0,0,1-3,7.91A9.85,9.85,0,0,1,427.79,165Z"/><path class="cls-2" d="M468.53,164.5H451V122.26h6.63v35.6h10.87Z"/><path class="cls-2" d="M478.36,164.5h-6.64V122.26h6.64Z"/><path class="cls-2" d="M511.07,122.26V164.5h-6.64V143.44l-5.37,14.42H495.2l-5.37-14.42V164.5h-6.64V122.26H487l10.14,23.41,10.14-23.41Z"/><path class="cls-2" d="M522.53,164.5h-6.64V122.26h6.64Z"/><path class="cls-2" d="M545.71,128.89H539V164.5h-6.64V128.89h-6.76v-6.63h20.16Z"/><path class="cls-2" d="M555.3,128.89v10.62h7.48v6.64H555.3v11.71h10.86v6.64h-17.5V122.26h17.5v6.63Z"/><path class="cls-2" d="M580.28,164.5h-10V122.26h10a9.84,9.84,0,0,1,7,2.53q3,2.77,3,7.85v21.72a12.26,12.26,0,0,1-.73,4.4,8.82,8.82,0,0,1-2.35,3.38A9.93,9.93,0,0,1,580.28,164.5Zm-3.38-6.64h3.38a3.8,3.8,0,0,0,2.54-.66,3.7,3.7,0,0,0,.84-2.84V132.64a4.18,4.18,0,0,0-.9-3,3.6,3.6,0,0,0-2.48-.73H576.9Z"/></svg>